<?xml version="1.0" encoding="UTF-8"?>
<svg xmlns="http://www.w3.org/2000/svg" xmlns:xlink="http://www.w3.org/1999/xlink" width="160px" height="20px" viewBox="0 0 159 27" version="1.1">
<g id="surface1">
<path style=" stroke:none;fill-rule:nonzero;fill:rgb(100%,100%,100%);fill-opacity:0.988235;" d="M 37.847656 20.921875 C 36.90625 20.921875 36.046875 20.710938 35.261719 20.28125 C 34.492188 19.835938 33.871094 19.183594 33.402344 18.328125 C 32.945312 17.46875 32.71875 16.394531 32.71875 15.105469 C 32.71875 13.820312 32.9375 12.746094 33.378906 11.886719 C 33.835938 11.027344 34.449219 10.382812 35.21875 9.953125 C 36.003906 9.527344 36.878906 9.3125 37.847656 9.3125 C 38.960938 9.3125 39.945312 9.554688 40.800781 10.039062 C 41.652344 10.527344 42.332031 11.207031 42.828125 12.078125 C 43.328125 12.9375 43.578125 13.949219 43.578125 15.105469 C 43.578125 16.265625 43.328125 17.28125 42.828125 18.15625 C 42.332031 19.027344 41.652344 19.707031 40.800781 20.195312 C 39.945312 20.679688 38.960938 20.921875 37.847656 20.921875 Z M 31.839844 24.960938 L 31.839844 9.417969 L 33.808594 9.417969 L 33.808594 12.488281 L 33.679688 15.128906 L 33.894531 17.769531 L 33.894531 24.960938 Z M 37.675781 19.121094 C 38.40625 19.121094 39.054688 18.957031 39.625 18.628906 C 40.207031 18.296875 40.664062 17.832031 40.992188 17.230469 C 41.332031 16.617188 41.503906 15.90625 41.503906 15.105469 C 41.503906 14.289062 41.332031 13.589844 40.992188 13.003906 C 40.664062 12.402344 40.207031 11.9375 39.625 11.609375 C 39.054688 11.277344 38.40625 11.113281 37.675781 11.113281 C 36.964844 11.113281 36.316406 11.277344 35.730469 11.609375 C 35.164062 11.9375 34.707031 12.402344 34.363281 13.003906 C 34.035156 13.589844 33.871094 14.289062 33.871094 15.105469 C 33.871094 15.90625 34.035156 16.617188 34.363281 17.230469 C 34.707031 17.832031 35.164062 18.296875 35.730469 18.628906 C 36.316406 18.957031 36.964844 19.121094 37.675781 19.121094 Z M 51.457031 20.921875 C 50.246094 20.921875 49.179688 20.671875 48.253906 20.171875 C 47.339844 19.671875 46.628906 18.984375 46.113281 18.113281 C 45.617188 17.238281 45.367188 16.238281 45.367188 15.105469 C 45.367188 13.976562 45.609375 12.972656 46.09375 12.101562 C 46.59375 11.226562 47.269531 10.546875 48.125 10.0625 C 48.992188 9.5625 49.96875 9.3125 51.050781 9.3125 C 52.148438 9.3125 53.121094 9.554688 53.960938 10.039062 C 54.800781 10.527344 55.457031 11.214844 55.925781 12.101562 C 56.410156 12.972656 56.652344 13.996094 56.652344 15.171875 C 56.652344 15.257812 56.648438 15.355469 56.632812 15.472656 C 56.632812 15.585938 56.625 15.691406 56.609375 15.792969 L 46.96875 15.792969 L 46.96875 14.3125 L 55.542969 14.3125 L 54.707031 14.828125 C 54.722656 14.097656 54.574219 13.445312 54.257812 12.875 C 53.945312 12.300781 53.511719 11.859375 52.957031 11.542969 C 52.414062 11.214844 51.78125 11.050781 51.050781 11.050781 C 50.339844 11.050781 49.707031 11.214844 49.148438 11.542969 C 48.59375 11.859375 48.160156 12.308594 47.847656 12.894531 C 47.53125 13.46875 47.375 14.125 47.375 14.871094 L 47.375 15.214844 C 47.375 15.972656 47.546875 16.652344 47.890625 17.253906 C 48.246094 17.839844 48.738281 18.296875 49.363281 18.628906 C 49.992188 18.957031 50.710938 19.121094 51.523438 19.121094 C 52.191406 19.121094 52.796875 19.007812 53.339844 18.777344 C 53.894531 18.546875 54.378906 18.203125 54.792969 17.746094 L 55.925781 19.078125 C 55.414062 19.679688 54.773438 20.136719 54.003906 20.453125 C 53.246094 20.765625 52.398438 20.921875 51.457031 20.921875 Z M 65.554688 9.3125 C 66.480469 9.3125 67.292969 9.488281 67.992188 9.847656 C 68.703125 10.207031 69.257812 10.75 69.65625 11.480469 C 70.058594 12.207031 70.257812 13.132812 70.257812 14.246094 L 70.257812 20.796875 L 68.203125 20.796875 L 68.203125 14.484375 C 68.203125 13.382812 67.933594 12.550781 67.390625 11.992188 C 66.863281 11.4375 66.117188 11.15625 65.148438 11.15625 C 64.421875 11.15625 63.785156 11.300781 63.246094 11.585938 C 62.703125 11.871094 62.28125 12.292969 61.984375 12.851562 C 61.699219 13.410156 61.554688 14.105469 61.554688 14.933594 L 61.554688 20.796875 L 59.503906 20.796875 L 59.503906 9.417969 L 61.46875 9.417969 L 61.46875 12.488281 L 61.148438 11.671875 C 61.519531 10.929688 62.089844 10.347656 62.859375 9.933594 C 63.628906 9.519531 64.527344 9.3125 65.554688 9.3125 Z M 65.554688 9.3125 "/>
<path style=" stroke:none;fill-rule:nonzero;fill:rgb(100%,100%,100%);fill-opacity:0.988235;" d="M 78.347656 20.921875 C 77.40625 20.921875 76.507812 20.796875 75.65625 20.539062 C 74.8125 20.28125 74.152344 19.964844 73.667969 19.59375 L 74.523438 17.960938 C 75.007812 18.289062 75.605469 18.570312 76.316406 18.796875 C 77.03125 19.027344 77.757812 19.140625 78.496094 19.140625 C 79.453125 19.140625 80.136719 19.007812 80.550781 18.734375 C 80.976562 18.460938 81.191406 18.082031 81.191406 17.597656 C 81.191406 17.238281 81.0625 16.960938 80.808594 16.757812 C 80.550781 16.558594 80.207031 16.410156 79.78125 16.308594 C 79.367188 16.207031 78.902344 16.121094 78.390625 16.050781 C 77.878906 15.964844 77.363281 15.863281 76.851562 15.75 C 76.339844 15.621094 75.867188 15.449219 75.441406 15.234375 C 75.011719 15.007812 74.671875 14.699219 74.414062 14.3125 C 74.15625 13.910156 74.03125 13.382812 74.03125 12.722656 C 74.03125 12.035156 74.222656 11.4375 74.605469 10.921875 C 74.992188 10.40625 75.535156 10.011719 76.230469 9.738281 C 76.945312 9.453125 77.785156 9.3125 78.753906 9.3125 C 79.496094 9.3125 80.242188 9.402344 81 9.589844 C 81.769531 9.761719 82.394531 10.011719 82.878906 10.339844 L 82.003906 11.972656 C 81.492188 11.628906 80.957031 11.394531 80.402344 11.265625 C 79.84375 11.136719 79.289062 11.070312 78.734375 11.070312 C 77.835938 11.070312 77.164062 11.222656 76.722656 11.523438 C 76.28125 11.808594 76.0625 12.179688 76.0625 12.636719 C 76.0625 13.023438 76.1875 13.324219 76.445312 13.539062 C 76.714844 13.738281 77.058594 13.898438 77.472656 14.011719 C 77.898438 14.125 78.371094 14.226562 78.882812 14.3125 C 79.394531 14.382812 79.910156 14.484375 80.421875 14.613281 C 80.933594 14.726562 81.398438 14.890625 81.8125 15.105469 C 82.238281 15.320312 82.582031 15.621094 82.835938 16.007812 C 83.109375 16.394531 83.242188 16.910156 83.242188 17.554688 C 83.242188 18.242188 83.042969 18.835938 82.644531 19.335938 C 82.246094 19.835938 81.683594 20.230469 80.957031 20.515625 C 80.230469 20.789062 79.359375 20.921875 78.347656 20.921875 Z M 90.855469 20.921875 C 89.644531 20.921875 88.574219 20.671875 87.648438 20.171875 C 86.734375 19.671875 86.023438 18.984375 85.507812 18.113281 C 85.011719 17.238281 84.761719 16.238281 84.761719 15.105469 C 84.761719 13.976562 85.003906 12.972656 85.488281 12.101562 C 85.988281 11.226562 86.664062 10.546875 87.519531 10.0625 C 88.386719 9.5625 89.363281 9.3125 90.449219 9.3125 C 91.546875 9.3125 92.515625 9.554688 93.355469 10.039062 C 94.195312 10.527344 94.851562 11.214844 95.320312 12.101562 C 95.804688 12.972656 96.050781 13.996094 96.050781 15.171875 C 96.050781 15.257812 96.042969 15.355469 96.027344 15.472656 C 96.027344 15.585938 96.019531 15.691406 96.007812 15.792969 L 86.363281 15.792969 L 86.363281 14.3125 L 94.9375 14.3125 L 94.101562 14.828125 C 94.117188 14.097656 93.96875 13.445312 93.65625 12.875 C 93.339844 12.300781 92.90625 11.859375 92.351562 11.542969 C 91.808594 11.214844 91.175781 11.050781 90.449219 11.050781 C 89.734375 11.050781 89.101562 11.214844 88.546875 11.542969 C 87.988281 11.859375 87.554688 12.308594 87.242188 12.894531 C 86.925781 13.46875 86.769531 14.125 86.769531 14.871094 L 86.769531 15.214844 C 86.769531 15.972656 86.941406 16.652344 87.285156 17.253906 C 87.640625 17.839844 88.132812 18.296875 88.757812 18.628906 C 89.386719 18.957031 90.105469 19.121094 90.917969 19.121094 C 91.589844 19.121094 92.195312 19.007812 92.734375 18.777344 C 93.292969 18.546875 93.777344 18.203125 94.1875 17.746094 L 95.320312 19.078125 C 94.808594 19.679688 94.167969 20.136719 93.398438 20.453125 C 92.640625 20.765625 91.792969 20.921875 90.855469 20.921875 Z M 103.835938 20.921875 C 102.683594 20.921875 101.648438 20.671875 100.738281 20.171875 C 99.839844 19.671875 99.132812 18.984375 98.621094 18.113281 C 98.109375 17.238281 97.851562 16.238281 97.851562 15.105469 C 97.851562 13.976562 98.109375 12.972656 98.621094 12.101562 C 99.132812 11.226562 99.839844 10.546875 100.738281 10.0625 C 101.648438 9.5625 102.683594 9.3125 103.835938 9.3125 C 104.863281 9.3125 105.773438 9.519531 106.574219 9.933594 C 107.386719 10.335938 108.011719 10.933594 108.453125 11.738281 L 106.894531 12.746094 C 106.523438 12.1875 106.066406 11.78125 105.527344 11.523438 C 105 11.25 104.429688 11.113281 103.816406 11.113281 C 103.074219 11.113281 102.410156 11.277344 101.828125 11.609375 C 101.242188 11.9375 100.78125 12.402344 100.4375 13.003906 C 100.097656 13.589844 99.925781 14.289062 99.925781 15.105469 C 99.925781 15.921875 100.097656 16.628906 100.4375 17.230469 C 100.78125 17.832031 101.242188 18.296875 101.828125 18.628906 C 102.410156 18.957031 103.074219 19.121094 103.816406 19.121094 C 104.429688 19.121094 105 18.992188 105.527344 18.734375 C 106.066406 18.460938 106.523438 18.046875 106.894531 17.488281 L 108.453125 18.476562 C 108.011719 19.265625 107.386719 19.871094 106.574219 20.300781 C 105.773438 20.714844 104.863281 20.921875 103.835938 20.921875 Z M 115.878906 20.921875 C 114.910156 20.921875 114.054688 20.746094 113.3125 20.386719 C 112.585938 20.03125 112.015625 19.484375 111.601562 18.753906 C 111.203125 18.011719 111.003906 17.082031 111.003906 15.964844 L 111.003906 9.417969 L 113.058594 9.417969 L 113.058594 15.730469 C 113.058594 16.84375 113.320312 17.683594 113.847656 18.242188 C 114.390625 18.796875 115.144531 19.078125 116.113281 19.078125 C 116.828125 19.078125 117.445312 18.933594 117.972656 18.648438 C 118.5 18.347656 118.90625 17.917969 119.191406 17.359375 C 119.476562 16.789062 119.621094 16.101562 119.621094 15.300781 L 119.621094 9.417969 L 121.671875 9.417969 L 121.671875 20.796875 L 119.726562 20.796875 L 119.726562 17.726562 L 120.046875 18.542969 C 119.675781 19.300781 119.121094 19.886719 118.378906 20.300781 C 117.640625 20.714844 116.804688 20.921875 115.878906 20.921875 Z M 125.578125 20.796875 L 125.578125 9.417969 L 127.546875 9.417969 L 127.546875 12.507812 L 127.355469 11.738281 C 127.667969 10.949219 128.195312 10.347656 128.9375 9.933594 C 129.675781 9.519531 130.589844 9.3125 131.671875 9.3125 L 131.671875 11.308594 C 131.585938 11.292969 131.5 11.285156 131.414062 11.285156 C 131.34375 11.285156 131.273438 11.285156 131.203125 11.285156 C 130.105469 11.285156 129.234375 11.613281 128.59375 12.273438 C 127.953125 12.929688 127.632812 13.882812 127.632812 15.128906 L 127.632812 20.796875 Z M 134.203125 20.796875 L 134.203125 9.417969 L 136.253906 9.417969 L 136.253906 20.796875 Z M 135.226562 7.230469 C 134.828125 7.230469 134.492188 7.101562 134.222656 6.84375 C 133.964844 6.585938 133.839844 6.269531 133.839844 5.898438 C 133.839844 5.511719 133.964844 5.1875 134.222656 4.933594 C 134.492188 4.675781 134.828125 4.546875 135.226562 4.546875 C 135.628906 4.546875 135.953125 4.675781 136.210938 4.933594 C 136.480469 5.175781 136.617188 5.484375 136.617188 5.855469 C 136.617188 6.242188 136.488281 6.570312 136.234375 6.84375 C 135.976562 7.101562 135.640625 7.230469 135.226562 7.230469 Z M 144.0625 20.921875 C 142.921875 20.921875 142.039062 20.617188 141.414062 20 C 140.785156 19.386719 140.472656 18.503906 140.472656 17.359375 L 140.472656 6.929688 L 142.523438 6.929688 L 142.523438 17.273438 C 142.523438 17.890625 142.675781 18.363281 142.972656 18.691406 C 143.285156 19.019531 143.730469 19.183594 144.296875 19.183594 C 144.941406 19.183594 145.472656 19.007812 145.902344 18.648438 L 146.542969 20.128906 C 146.230469 20.402344 145.851562 20.601562 145.410156 20.730469 C 144.984375 20.859375 144.535156 20.921875 144.0625 20.921875 Z M 138.546875 11.113281 L 138.546875 9.417969 L 145.773438 9.417969 L 145.773438 11.113281 Z M 149.308594 25.089844 C 148.765625 25.089844 148.238281 24.996094 147.726562 24.808594 C 147.210938 24.636719 146.769531 24.378906 146.398438 24.035156 L 147.277344 22.492188 C 147.5625 22.761719 147.875 22.96875 148.21875 23.113281 C 148.558594 23.257812 148.921875 23.328125 149.308594 23.328125 C 149.804688 23.328125 150.21875 23.199219 150.546875 22.941406 C 150.875 22.683594 151.179688 22.226562 151.464844 21.566406 L 152.171875 20 L 152.386719 19.742188 L 156.832031 9.417969 L 158.84375 9.417969 L 153.347656 21.933594 C 153.019531 22.734375 152.648438 23.363281 152.234375 23.820312 C 151.835938 24.28125 151.394531 24.601562 150.910156 24.789062 C 150.425781 24.988281 149.890625 25.089844 149.308594 25.089844 Z M 152 21.160156 L 146.828125 9.417969 L 148.964844 9.417969 L 153.371094 19.550781 Z M 152 21.160156 "/>
<path style=" stroke:none;fill-rule:nonzero;fill:rgb(26.274511%,30.588236%,69.803923%);fill-opacity:1;" d="M 13.074219 3.589844 C 12.964844 3.738281 12.851562 3.648438 12.851562 3.738281 C 12.1875 3.5625 10.9375 4.035156 10.40625 3.976562 C 10.519531 4.152344 10.242188 4.121094 10.242188 4.242188 C 10.128906 4.0625 10.019531 4.242188 9.851562 4.179688 C 9.6875 4.625 9.019531 4.300781 8.933594 4.859375 C 8.546875 4.859375 8.40625 5.097656 8.019531 5.332031 C 8.046875 5.363281 8.074219 5.363281 8.101562 5.390625 C 7.90625 5.421875 7.90625 5.539062 7.742188 5.539062 L 7.796875 5.65625 C 7.492188 5.714844 7.378906 6.21875 6.933594 6.394531 C 6.796875 6.421875 6.492188 6.925781 6.324219 7.042969 C 6.242188 7.101562 6.101562 7.101562 6.296875 7.132812 C 6.269531 7.160156 6.269531 7.21875 6.296875 7.25 C 6.101562 7.308594 6.074219 7.484375 5.824219 7.574219 C 5.796875 7.664062 5.878906 7.722656 5.824219 7.78125 C 5.769531 7.808594 5.683594 7.75 5.628906 7.78125 C 5.601562 7.25 6.15625 7.191406 6.324219 6.746094 C 6.269531 6.808594 6.183594 6.984375 6.128906 6.867188 C 6.101562 6.777344 6.351562 6.453125 6.351562 6.628906 C 6.269531 6.570312 6.242188 6.71875 6.296875 6.746094 C 6.378906 6.601562 6.546875 6.628906 6.546875 6.511719 C 6.460938 6.421875 6.351562 6.601562 6.378906 6.453125 C 6.628906 6.304688 6.601562 6.15625 6.742188 5.953125 C 6.628906 6.097656 6.601562 5.832031 6.492188 5.953125 C 6.460938 6.394531 5.992188 6.304688 5.992188 6.746094 C 5.933594 6.894531 5.878906 6.777344 5.796875 6.835938 C 5.90625 6.953125 5.460938 7.367188 5.460938 7.21875 C 5.324219 7.398438 5.40625 7.457031 5.378906 7.574219 C 5.269531 7.601562 5.351562 7.457031 5.269531 7.542969 C 5.378906 7.75 5.128906 8.015625 4.960938 8.222656 L 5.074219 8.28125 C 4.878906 8.398438 4.851562 8.636719 4.710938 8.902344 C 4.546875 8.636719 5.046875 8.046875 4.960938 7.929688 C 4.960938 7.898438 5.15625 7.664062 5.210938 7.542969 C 5.433594 7.132812 5.601562 6.628906 5.90625 6.394531 C 5.851562 6.421875 5.878906 6.601562 5.960938 6.511719 C 5.960938 6.421875 5.90625 6.335938 5.90625 6.246094 C 6.074219 6.070312 6.210938 5.921875 6.378906 5.746094 C 6.019531 5.980469 5.65625 6.21875 5.40625 6.570312 C 5.546875 6.601562 5.683594 6.335938 5.796875 6.363281 C 5.519531 6.601562 5.601562 6.6875 5.492188 6.984375 C 5.378906 7.074219 5.519531 6.867188 5.40625 6.835938 C 5.046875 7.191406 4.769531 7.398438 4.601562 7.722656 C 4.628906 7.75 4.65625 7.78125 4.65625 7.839844 C 4.628906 7.867188 4.628906 7.867188 4.601562 7.898438 C 4.769531 7.722656 4.824219 7.574219 5.019531 7.542969 C 4.933594 7.632812 5.019531 7.664062 4.90625 7.75 C 4.851562 7.867188 4.769531 7.691406 4.710938 7.78125 C 4.769531 7.867188 4.710938 7.988281 4.710938 8.074219 C 4.65625 8.074219 4.601562 8.074219 4.574219 8.164062 C 4.519531 8.195312 4.488281 8.164062 4.460938 8.105469 C 4.433594 8.132812 4.433594 8.195312 4.40625 8.222656 L 4.40625 8.253906 C 4.378906 8.28125 4.351562 8.339844 4.324219 8.371094 C 4.101562 8.988281 3.960938 9.816406 3.65625 10.347656 C 3.738281 10.699219 3.601562 11.410156 3.519531 11.585938 C 3.601562 11.734375 3.546875 12.410156 3.488281 12.53125 C 3.351562 12.472656 3.519531 12.148438 3.378906 12.058594 C 3.238281 12.707031 3.460938 13.445312 3.40625 14.035156 C 3.460938 14.035156 3.519531 14.035156 3.519531 14.0625 C 3.433594 14.152344 3.574219 14.328125 3.546875 14.535156 C 3.65625 14.800781 3.296875 14.152344 3.296875 13.886719 C 3.269531 13.828125 3.15625 13.886719 3.183594 13.738281 C 3.183594 13.53125 3.238281 13.121094 3.128906 12.824219 C 3.074219 12.824219 3.074219 12.882812 3.019531 12.855469 C 2.988281 12.707031 2.960938 12.53125 2.933594 12.382812 C 2.90625 12.441406 2.878906 12.53125 2.878906 12.558594 C 2.738281 13.296875 2.878906 14.152344 2.824219 14.773438 C 2.933594 14.773438 2.933594 14.949219 3.019531 15.007812 C 2.988281 14.773438 2.933594 14.476562 3.074219 14.417969 C 3.183594 15.570312 3.40625 16.835938 3.90625 18.078125 C 4.269531 18.992188 4.796875 19.90625 5.433594 20.644531 C 5.492188 20.554688 5.40625 20.347656 5.433594 20.257812 C 5.992188 20.878906 6.351562 21.617188 6.960938 22.03125 C 6.992188 21.882812 6.710938 21.765625 6.710938 21.644531 C 6.960938 21.910156 7.046875 21.824219 7.324219 21.910156 C 7.40625 22.03125 7.214844 21.910156 7.183594 22.03125 C 7.351562 22.148438 7.464844 22.296875 7.574219 22.382812 C 7.574219 22.355469 7.546875 22.355469 7.546875 22.324219 C 7.851562 22.414062 7.878906 22.589844 8.101562 22.648438 C 8.074219 22.679688 8.019531 22.707031 7.933594 22.679688 C 7.992188 22.707031 8.074219 22.765625 8.15625 22.796875 C 8.128906 22.796875 8.128906 22.765625 8.101562 22.765625 C 8.269531 22.855469 8.128906 22.738281 8.128906 22.679688 C 8.15625 22.679688 8.183594 22.707031 8.183594 22.707031 C 8.019531 22.589844 7.90625 22.53125 7.851562 22.324219 C 7.933594 22.382812 7.964844 22.324219 8.074219 22.414062 C 8.183594 22.472656 8.046875 22.558594 8.128906 22.621094 C 8.214844 22.558594 8.324219 22.589844 8.40625 22.589844 C 8.40625 22.648438 8.433594 22.707031 8.492188 22.738281 C 8.519531 22.796875 8.492188 22.824219 8.464844 22.824219 C 8.492188 22.855469 8.519531 22.855469 8.574219 22.886719 C 8.574219 22.886719 8.601562 22.886719 8.601562 22.855469 C 9.074219 23.089844 9.601562 23.296875 10.101562 23.476562 C 10.40625 23.503906 10.796875 23.503906 10.964844 23.710938 C 10.90625 23.710938 10.851562 23.679688 10.824219 23.710938 C 10.851562 23.710938 10.90625 23.742188 10.9375 23.742188 C 10.992188 23.679688 11.074219 23.742188 10.992188 23.621094 C 11.019531 23.621094 11.019531 23.621094 11.046875 23.652344 C 11.046875 23.621094 11.046875 23.621094 11.074219 23.59375 C 11.101562 23.59375 11.128906 23.621094 11.15625 23.679688 C 11.1875 23.679688 11.214844 23.679688 11.242188 23.710938 L 11.214844 23.679688 C 11.4375 23.742188 11.628906 23.710938 11.9375 23.769531 C 11.9375 23.800781 11.9375 23.828125 11.9375 23.859375 C 11.992188 23.859375 12.019531 23.886719 12.074219 23.886719 L 12.074219 23.859375 C 12.1875 23.917969 12.296875 23.800781 12.296875 23.859375 C 12.324219 23.859375 12.324219 23.859375 12.351562 23.859375 C 12.351562 23.800781 12.324219 23.769531 12.324219 23.742188 C 12.464844 23.742188 12.546875 23.742188 12.601562 23.828125 C 12.574219 23.859375 12.546875 23.859375 12.519531 23.859375 C 12.574219 23.859375 12.628906 23.886719 12.6875 23.917969 C 12.769531 23.886719 12.796875 23.859375 12.796875 23.742188 C 12.9375 24.007812 13.378906 23.679688 13.574219 23.742188 C 13.660156 23.742188 13.628906 23.859375 13.6875 23.917969 C 13.714844 23.917969 13.742188 23.917969 13.769531 23.917969 C 13.910156 23.800781 14.101562 23.679688 14.351562 23.652344 C 14.132812 23.710938 14.382812 23.742188 14.410156 23.769531 C 14.351562 23.769531 14.351562 23.800781 14.351562 23.828125 C 14.4375 23.828125 14.519531 23.800781 14.601562 23.800781 C 14.601562 23.742188 14.632812 23.710938 14.6875 23.710938 C 14.742188 23.710938 14.742188 23.742188 14.742188 23.800781 C 14.824219 23.800781 14.882812 23.800781 14.964844 23.769531 C 14.9375 23.652344 15.101562 23.621094 15.160156 23.535156 C 14.9375 23.59375 14.6875 23.679688 14.601562 23.535156 C 15.492188 23.328125 16.464844 23.03125 17.410156 22.53125 C 17.410156 22.53125 17.410156 22.53125 17.410156 22.5 L 17.4375 22.5 C 17.605469 22.414062 17.769531 22.324219 17.9375 22.234375 C 18.046875 22.175781 18.132812 22.117188 18.242188 22.03125 C 18.242188 22 18.242188 21.96875 18.296875 21.96875 L 18.324219 21.96875 C 18.4375 21.882812 18.546875 21.824219 18.660156 21.734375 C 18.769531 21.558594 18.882812 21.320312 19.074219 21.378906 C 19.492188 20.703125 19.9375 20.4375 20.296875 19.726562 C 20.328125 19.847656 20.410156 19.460938 20.546875 19.433594 C 20.328125 19.460938 20.6875 19.285156 20.464844 19.316406 C 20.660156 19.109375 20.714844 19.019531 20.742188 18.785156 C 20.6875 18.902344 20.660156 18.933594 20.632812 18.8125 C 20.605469 18.636719 20.828125 18.84375 20.910156 18.667969 C 20.742188 18.667969 20.796875 18.546875 20.828125 18.402344 C 20.910156 18.488281 20.882812 18.578125 20.964844 18.546875 C 21.078125 18.429688 20.910156 18.402344 20.9375 18.3125 C 21.019531 18.429688 21.046875 18.371094 21.160156 18.3125 C 21.019531 18.28125 21.242188 18.078125 21.078125 18.164062 C 21.1875 18.015625 21.214844 17.929688 21.160156 17.78125 C 21.046875 17.957031 21.132812 18.078125 20.964844 18.046875 C 21.296875 17.75 21.132812 17.074219 21.519531 17.015625 C 21.269531 16.957031 21.519531 16.835938 21.382812 16.808594 C 21.550781 16.75 21.464844 16.511719 21.660156 16.453125 C 21.632812 16.304688 21.578125 16.21875 21.550781 16.070312 C 21.632812 15.953125 21.660156 15.714844 21.800781 15.6875 C 21.714844 15.597656 21.769531 15.363281 21.6875 15.273438 C 21.800781 15.332031 21.855469 15.332031 21.9375 15.214844 C 21.800781 15.097656 21.910156 14.980469 21.828125 14.949219 C 22.078125 14.269531 21.769531 12.882812 21.910156 12.351562 C 21.742188 12.441406 21.800781 12.148438 21.6875 12.148438 C 21.882812 12.058594 21.714844 11.910156 21.800781 11.761719 C 21.410156 11.527344 21.800781 10.878906 21.269531 10.730469 C 21.328125 10.316406 21.105469 10.140625 20.9375 9.699219 C 20.910156 9.726562 20.910156 9.757812 20.882812 9.785156 C 20.855469 9.578125 20.742188 9.550781 20.796875 9.375 L 20.6875 9.433594 C 20.6875 9.109375 20.214844 8.929688 20.105469 8.429688 C 20.078125 8.28125 19.660156 7.898438 19.546875 7.691406 C 19.492188 7.601562 19.519531 7.457031 19.464844 7.664062 C 19.4375 7.632812 19.382812 7.632812 19.355469 7.632812 C 19.328125 7.425781 19.160156 7.367188 19.105469 7.101562 C 19.046875 7.074219 18.964844 7.160156 18.910156 7.074219 C 18.910156 7.011719 18.964844 6.925781 18.9375 6.867188 C 19.4375 6.894531 19.4375 7.515625 19.828125 7.722656 C 19.796875 7.632812 19.632812 7.542969 19.742188 7.484375 C 19.828125 7.484375 20.078125 7.78125 19.9375 7.75 C 20.019531 7.691406 19.855469 7.632812 19.828125 7.664062 C 19.964844 7.78125 19.910156 7.929688 20.019531 7.957031 C 20.105469 7.898438 19.9375 7.75 20.105469 7.78125 C 20.214844 8.046875 20.355469 8.074219 20.519531 8.222656 C 20.410156 8.105469 20.660156 8.074219 20.546875 7.957031 C 20.132812 7.867188 20.269531 7.367188 19.855469 7.308594 C 19.742188 7.21875 19.828125 7.191406 19.796875 7.101562 C 19.660156 7.191406 19.355469 6.6875 19.464844 6.71875 C 19.328125 6.570312 19.242188 6.628906 19.132812 6.601562 C 19.105469 6.480469 19.242188 6.570312 19.1875 6.480469 C 18.992188 6.570312 18.742188 6.277344 18.574219 6.070312 L 18.492188 6.15625 C 18.410156 5.921875 18.1875 5.890625 17.9375 5.714844 C 18.214844 5.566406 18.6875 6.1875 18.824219 6.097656 C 18.855469 6.097656 19.074219 6.335938 19.160156 6.421875 C 19.519531 6.71875 19.964844 6.953125 20.132812 7.277344 C 20.105469 7.21875 19.9375 7.21875 20.019531 7.308594 C 20.105469 7.339844 20.1875 7.277344 20.269531 7.277344 C 20.714844 7.929688 21.269531 8.457031 21.6875 9.226562 C 21.714844 9.253906 21.742188 9.316406 21.769531 9.375 C 21.714844 9.195312 21.632812 9.050781 21.578125 8.871094 C 21.132812 8.546875 20.964844 7.601562 20.4375 7.457031 C 20.464844 7.132812 20.1875 7.042969 20.046875 6.660156 C 19.964844 6.542969 19.910156 6.746094 19.828125 6.601562 C 19.910156 6.1875 19.132812 6.21875 19.160156 5.832031 C 19.105469 5.804688 19.019531 5.773438 18.964844 5.714844 L 18.9375 5.714844 C 18.910156 5.6875 18.910156 5.6875 18.882812 5.65625 C 18.742188 5.566406 18.632812 5.480469 18.519531 5.390625 C 18.132812 5.15625 17.605469 4.976562 17.1875 4.742188 L 17.1875 4.769531 C 17.074219 4.710938 16.9375 4.742188 16.964844 4.625 C 16.882812 4.566406 16.796875 4.503906 16.714844 4.445312 C 16.6875 4.445312 16.6875 4.445312 16.660156 4.445312 C 16.660156 4.445312 16.632812 4.476562 16.605469 4.476562 C 16.546875 4.476562 16.546875 4.476562 16.519531 4.445312 C 16.160156 4.417969 15.6875 4.242188 15.546875 4.121094 C 15.410156 4.210938 14.769531 4.0625 14.660156 4.003906 C 14.714844 3.914062 14.882812 4.003906 15.019531 4.003906 C 14.9375 3.976562 14.851562 3.945312 14.824219 3.886719 C 14.796875 3.886719 14.796875 3.886719 14.769531 3.886719 C 14.742188 3.976562 14.660156 3.886719 14.632812 3.914062 L 14.660156 3.914062 C 14.632812 4.035156 14.546875 4.09375 14.410156 4.0625 C 14.410156 4.003906 14.410156 3.976562 14.382812 3.914062 C 14.4375 3.914062 14.601562 4.003906 14.601562 3.914062 C 14.574219 3.914062 14.574219 3.886719 14.601562 3.886719 C 14.546875 3.828125 14.464844 3.828125 14.410156 3.796875 C 14.296875 3.796875 14.160156 3.796875 14.046875 3.796875 C 14.019531 3.828125 13.992188 3.828125 13.9375 3.855469 C 13.910156 3.828125 13.851562 3.828125 13.824219 3.796875 C 13.660156 3.796875 13.464844 3.769531 13.324219 3.738281 C 13.324219 3.796875 13.324219 3.855469 13.269531 3.855469 C 13.1875 3.738281 13.019531 3.886719 12.824219 3.828125 C 12.628906 3.886719 12.9375 3.738281 13.214844 3.679688 C 13.1875 3.648438 13.160156 3.621094 13.074219 3.589844 Z M 9.183594 3.179688 C 8.796875 3.5625 7.992188 3.738281 7.851562 4.035156 C 7.628906 4.0625 7.296875 4.503906 7.019531 4.566406 C 7.15625 4.566406 7.046875 4.652344 7.019531 4.710938 C 6.960938 4.652344 6.90625 4.625 6.851562 4.625 C 6.851562 4.859375 6.628906 5.007812 6.433594 5.15625 C 6.574219 5.066406 6.683594 5.007812 6.851562 4.976562 C 6.851562 5.035156 6.851562 5.097656 6.90625 5.097656 C 7.101562 4.890625 7.324219 4.683594 7.574219 4.476562 C 7.90625 4.152344 9.628906 3.324219 9.9375 3.179688 C 9.9375 3.179688 9.878906 3.058594 9.90625 3.058594 C 10.046875 2.972656 10.15625 3.148438 10.1875 2.941406 C 9.742188 2.882812 9.574219 3.207031 9.183594 3.179688 Z M 21.992188 10.023438 L 21.992188 9.992188 C 21.964844 9.992188 21.992188 10.023438 21.992188 10.023438 Z M 10.769531 23.679688 C 10.742188 23.652344 10.714844 23.652344 10.714844 23.652344 C 10.714844 23.679688 10.742188 23.679688 10.769531 23.679688 Z M 8.40625 22.914062 C 8.433594 22.945312 8.433594 22.945312 8.464844 22.945312 C 8.433594 22.945312 8.40625 22.914062 8.40625 22.914062 Z M 12.851562 23.886719 C 12.796875 23.886719 12.769531 23.886719 12.742188 23.917969 C 12.769531 23.917969 12.796875 23.917969 12.824219 23.917969 L 12.851562 23.917969 C 12.851562 23.917969 12.851562 23.917969 12.851562 23.886719 Z M 13.351562 23.828125 C 13.324219 23.859375 13.242188 23.886719 13.160156 23.886719 C 13.160156 23.917969 13.1875 23.945312 13.1875 23.945312 C 13.214844 23.945312 13.242188 23.945312 13.269531 23.945312 C 13.269531 23.945312 13.296875 23.945312 13.296875 23.917969 C 13.296875 23.917969 13.296875 23.917969 13.296875 23.945312 C 13.324219 23.945312 13.324219 23.945312 13.351562 23.945312 C 13.378906 23.886719 13.410156 23.859375 13.351562 23.828125 Z M 14.269531 23.742188 C 14.132812 23.710938 14.046875 23.769531 13.910156 23.859375 C 13.992188 23.859375 14.101562 23.828125 14.1875 23.800781 C 14.214844 23.800781 14.242188 23.769531 14.269531 23.742188 Z M 24.160156 19.550781 C 24.105469 19.523438 24.078125 19.523438 24.023438 19.640625 C 23.578125 20.644531 22.769531 22.089844 21.605469 23.296875 C 20.464844 24.535156 18.9375 25.539062 17.546875 26.070312 C 17.632812 26.042969 17.742188 25.984375 17.6875 25.921875 C 16.464844 26.425781 15.296875 26.71875 14.1875 26.839844 C 11.1875 27.339844 8.046875 26.660156 5.628906 25.007812 C 5.65625 24.949219 5.65625 24.921875 5.574219 24.863281 C 4.683594 24.273438 3.433594 23.238281 2.433594 21.882812 C 1.433594 20.523438 0.65625 18.8125 0.324219 17.28125 C 0.351562 17.367188 0.378906 17.515625 0.433594 17.457031 C -0.289062 14.417969 -0.09375 11.820312 0.90625 9.578125 C 0.960938 9.640625 0.765625 9.933594 0.933594 9.90625 C 1.046875 9.578125 1.183594 9.226562 1.351562 8.902344 C 1.546875 8.429688 1.765625 7.808594 2.074219 7.664062 C 1.765625 8.371094 1.238281 10.230469 1.183594 11.882812 C 1.296875 11.644531 1.265625 11.144531 1.433594 10.9375 C 1.488281 12.058594 1.238281 13.5625 1.601562 14.625 C 1.515625 14.0625 1.460938 13.296875 1.515625 12.53125 C 1.515625 11.96875 1.765625 10.40625 1.933594 10.257812 C 1.90625 10.289062 1.90625 10.433594 1.933594 10.433594 C 2.015625 10.257812 1.824219 10.171875 1.960938 10.140625 C 1.960938 10.199219 1.988281 10.199219 2.015625 10.199219 C 2.296875 9.550781 2.65625 8.546875 2.933594 8.046875 C 3.269531 7.398438 3.710938 6.808594 4.210938 6.277344 C 4.210938 6.246094 4.238281 6.246094 4.238281 6.21875 C 4.296875 6.070312 4.488281 5.890625 4.546875 5.773438 C 4.574219 5.714844 4.519531 5.625 4.546875 5.566406 C 4.960938 4.742188 5.574219 3.914062 6.324219 3.265625 C 6.796875 2.675781 7.546875 2.058594 8.464844 1.527344 C 9.351562 1.023438 10.378906 0.613281 11.324219 0.375 C 11.992188 0.199219 12.796875 0.167969 13.296875 0.0507812 C 13.964844 -0.0976562 15.132812 0.109375 15.714844 0.226562 C 19.214844 0.789062 22.6875 3.324219 24.4375 6.984375 C 25.773438 11.585938 25.714844 16.101562 24.160156 19.550781 Z M 24.160156 19.550781 "/>
</g>
</svg>
