<svg width="952" height="161" viewBox="0 0 952 161" fill="none" xmlns="http://www.w3.org/2000/svg">
<path d="M226.616 124.768C220.984 124.768 215.821 123.488 211.128 120.928C206.52 118.283 202.808 114.4 199.992 109.28C197.261 104.16 195.896 97.76 195.896 90.08C195.896 82.4 197.219 76 199.864 70.88C202.595 65.76 206.264 61.92 210.872 59.36C215.565 56.8 220.813 55.52 226.616 55.52C233.272 55.52 239.16 56.9707 244.28 59.872C249.4 62.7733 253.453 66.8267 256.44 72.032C259.427 77.152 260.92 83.168 260.92 90.08C260.92 96.992 259.427 103.051 256.44 108.256C253.453 113.461 249.4 117.515 244.28 120.416C239.16 123.317 233.272 124.768 226.616 124.768ZM190.648 148.832V56.16H202.424V74.464L201.656 90.208L202.936 105.952V148.832H190.648ZM225.592 114.016C229.944 114.016 233.827 113.035 237.24 111.072C240.739 109.109 243.469 106.336 245.432 102.752C247.48 99.0827 248.504 94.8587 248.504 90.08C248.504 85.216 247.48 81.0347 245.432 77.536C243.469 73.952 240.739 71.1787 237.24 69.216C233.827 67.2533 229.944 66.272 225.592 66.272C221.325 66.272 217.443 67.2533 213.944 69.216C210.531 71.1787 207.8 73.952 205.752 77.536C203.789 81.0347 202.808 85.216 202.808 90.08C202.808 94.8587 203.789 99.0827 205.752 102.752C207.8 106.336 210.531 109.109 213.944 111.072C217.443 113.035 221.325 114.016 225.592 114.016ZM308.106 124.768C300.853 124.768 294.453 123.275 288.906 120.288C283.445 117.301 279.178 113.205 276.106 108C273.119 102.795 271.626 96.8213 271.626 90.08C271.626 83.3387 273.077 77.3653 275.978 72.16C278.965 66.9547 283.018 62.9013 288.138 60C293.343 57.0133 299.189 55.52 305.674 55.52C312.245 55.52 318.047 56.9707 323.082 59.872C328.117 62.7733 332.042 66.8693 334.858 72.16C337.759 77.3653 339.21 83.4667 339.21 90.464C339.21 90.976 339.167 91.5733 339.082 92.256C339.082 92.9387 339.039 93.5787 338.954 94.176H281.226V85.344H332.554L327.562 88.416C327.647 84.064 326.751 80.1813 324.874 76.768C322.997 73.3547 320.394 70.7093 317.066 68.832C313.823 66.8693 310.026 65.888 305.674 65.888C301.407 65.888 297.61 66.8693 294.282 68.832C290.954 70.7093 288.351 73.3973 286.474 76.896C284.597 80.3093 283.658 84.2347 283.658 88.672V90.72C283.658 95.2427 284.682 99.296 286.73 102.88C288.863 106.379 291.807 109.109 295.562 111.072C299.317 113.035 303.626 114.016 308.49 114.016C312.501 114.016 316.127 113.333 319.37 111.968C322.698 110.603 325.599 108.555 328.074 105.824L334.858 113.76C331.786 117.344 327.946 120.075 323.338 121.952C318.815 123.829 313.738 124.768 308.106 124.768ZM392.497 55.52C398.044 55.52 402.908 56.5867 407.089 58.72C411.356 60.8533 414.684 64.096 417.073 68.448C419.462 72.8 420.657 78.304 420.657 84.96V124H408.369V86.368C408.369 79.7973 406.748 74.848 403.505 71.52C400.348 68.192 395.868 66.528 390.065 66.528C385.713 66.528 381.916 67.3813 378.673 69.088C375.43 70.7947 372.913 73.312 371.121 76.64C369.414 79.968 368.561 84.1067 368.561 89.056V124H356.273V56.16H368.049V74.464L366.129 69.6C368.348 65.1627 371.761 61.7067 376.369 59.232C380.977 56.7573 386.353 55.52 392.497 55.52Z" fill="white" fill-opacity="0.99"/>
<path d="M469.104 124.768C463.472 124.768 458.096 124 452.976 122.464C447.941 120.928 443.973 119.051 441.072 116.832L446.192 107.104C449.093 109.067 452.677 110.731 456.944 112.096C461.211 113.461 465.563 114.144 470 114.144C475.717 114.144 479.813 113.333 482.288 111.712C484.848 110.091 486.128 107.829 486.128 104.928C486.128 102.795 485.36 101.131 483.824 99.936C482.288 98.7413 480.24 97.8453 477.68 97.248C475.205 96.6507 472.432 96.1387 469.36 95.712C466.288 95.2 463.216 94.6027 460.144 93.92C457.072 93.152 454.256 92.128 451.696 90.848C449.136 89.4827 447.088 87.648 445.552 85.344C444.016 82.9547 443.248 79.7973 443.248 75.872C443.248 71.776 444.4 68.192 446.704 65.12C449.008 62.048 452.251 59.7013 456.432 58.08C460.699 56.3733 465.733 55.52 471.536 55.52C475.973 55.52 480.453 56.0747 484.976 57.184C489.584 58.208 493.339 59.7013 496.24 61.664L490.992 71.392C487.92 69.344 484.72 67.936 481.392 67.168C478.064 66.4 474.736 66.016 471.408 66.016C466.032 66.016 462.021 66.912 459.376 68.704C456.731 70.4107 455.408 72.6293 455.408 75.36C455.408 77.664 456.176 79.456 457.712 80.736C459.333 81.9307 461.381 82.8693 463.856 83.552C466.416 84.2347 469.232 84.832 472.304 85.344C475.376 85.7707 478.448 86.368 481.52 87.136C484.592 87.8187 487.365 88.8 489.84 90.08C492.4 91.36 494.448 93.152 495.984 95.456C497.605 97.76 498.416 100.832 498.416 104.672C498.416 108.768 497.221 112.309 494.832 115.296C492.443 118.283 489.072 120.629 484.72 122.336C480.368 123.957 475.163 124.768 469.104 124.768ZM543.981 124.768C536.728 124.768 530.328 123.275 524.781 120.288C519.32 117.301 515.053 113.205 511.981 108C508.994 102.795 507.501 96.8213 507.501 90.08C507.501 83.3387 508.952 77.3653 511.853 72.16C514.84 66.9547 518.893 62.9013 524.013 60C529.218 57.0133 535.064 55.52 541.549 55.52C548.12 55.52 553.922 56.9707 558.957 59.872C563.992 62.7733 567.917 66.8693 570.733 72.16C573.634 77.3653 575.085 83.4667 575.085 90.464C575.085 90.976 575.042 91.5733 574.957 92.256C574.957 92.9387 574.914 93.5787 574.829 94.176H517.101V85.344H568.429L563.437 88.416C563.522 84.064 562.626 80.1813 560.749 76.768C558.872 73.3547 556.269 70.7093 552.941 68.832C549.698 66.8693 545.901 65.888 541.549 65.888C537.282 65.888 533.485 66.8693 530.157 68.832C526.829 70.7093 524.226 73.3973 522.349 76.896C520.472 80.3093 519.533 84.2347 519.533 88.672V90.72C519.533 95.2427 520.557 99.296 522.605 102.88C524.738 106.379 527.682 109.109 531.437 111.072C535.192 113.035 539.501 114.016 544.365 114.016C548.376 114.016 552.002 113.333 555.245 111.968C558.573 110.603 561.474 108.555 563.949 105.824L570.733 113.76C567.661 117.344 563.821 120.075 559.213 121.952C554.69 123.829 549.613 124.768 543.981 124.768ZM621.716 124.768C614.804 124.768 608.617 123.275 603.156 120.288C597.78 117.301 593.556 113.205 590.484 108C587.412 102.795 585.876 96.8213 585.876 90.08C585.876 83.3387 587.412 77.3653 590.484 72.16C593.556 66.9547 597.78 62.9013 603.156 60C608.617 57.0133 614.804 55.52 621.716 55.52C627.86 55.52 633.321 56.7573 638.1 59.232C642.964 61.6213 646.719 65.2053 649.364 69.984L640.02 76C637.801 72.672 635.071 70.24 631.828 68.704C628.671 67.0827 625.257 66.272 621.588 66.272C617.151 66.272 613.183 67.2533 609.684 69.216C606.185 71.1787 603.412 73.952 601.364 77.536C599.316 81.0347 598.292 85.216 598.292 90.08C598.292 94.944 599.316 99.168 601.364 102.752C603.412 106.336 606.185 109.109 609.684 111.072C613.183 113.035 617.151 114.016 621.588 114.016C625.257 114.016 628.671 113.248 631.828 111.712C635.071 110.091 637.801 107.616 640.02 104.288L649.364 110.176C646.719 114.869 642.964 118.496 638.1 121.056C633.321 123.531 627.86 124.768 621.716 124.768ZM693.817 124.768C688.014 124.768 682.894 123.701 678.457 121.568C674.105 119.435 670.692 116.192 668.217 111.84C665.828 107.403 664.633 101.856 664.633 95.2V56.16H676.921V93.792C676.921 100.448 678.5 105.44 681.657 108.768C684.9 112.096 689.422 113.76 695.225 113.76C699.492 113.76 703.204 112.907 706.361 111.2C709.518 109.408 711.95 106.848 713.657 103.52C715.364 100.107 716.217 96.0107 716.217 91.232V56.16H728.505V124H716.857V105.696L718.777 110.56C716.558 115.083 713.23 118.581 708.793 121.056C704.356 123.531 699.364 124.768 693.817 124.768ZM751.898 124V56.16H763.674V74.592L762.522 69.984C764.399 65.2907 767.557 61.7067 771.994 59.232C776.431 56.7573 781.893 55.52 788.378 55.52V67.424C787.866 67.3387 787.354 67.296 786.842 67.296C786.415 67.296 785.989 67.296 785.562 67.296C778.991 67.296 773.786 69.2587 769.946 73.184C766.106 77.1093 764.186 82.784 764.186 90.208V124H751.898ZM803.523 124V56.16H815.811V124H803.523ZM809.667 43.104C807.278 43.104 805.272 42.336 803.651 40.8C802.115 39.264 801.347 37.3867 801.347 35.168C801.347 32.864 802.115 30.944 803.651 29.408C805.272 27.872 807.278 27.104 809.667 27.104C812.056 27.104 814.019 27.872 815.555 29.408C817.176 30.8587 817.987 32.6933 817.987 34.912C817.987 37.216 817.219 39.1787 815.683 40.8C814.147 42.336 812.142 43.104 809.667 43.104ZM862.569 124.768C855.742 124.768 850.452 122.933 846.697 119.264C842.942 115.595 841.065 110.347 841.065 103.52V41.312H853.353V103.008C853.353 106.677 854.249 109.493 856.041 111.456C857.918 113.419 860.564 114.4 863.977 114.4C867.817 114.4 871.017 113.333 873.577 111.2L877.417 120.032C875.54 121.653 873.278 122.848 870.633 123.616C868.073 124.384 865.385 124.768 862.569 124.768ZM829.545 66.272V56.16H872.809V66.272H829.545ZM893.967 149.6C890.724 149.6 887.567 149.045 884.495 147.936C881.423 146.912 878.778 145.376 876.559 143.328L881.807 134.112C883.514 135.733 885.391 136.971 887.439 137.824C889.487 138.677 891.663 139.104 893.967 139.104C896.954 139.104 899.428 138.336 901.391 136.8C903.354 135.264 905.188 132.533 906.895 128.608L911.119 119.264L912.399 117.728L939.023 56.16H951.055L918.159 130.784C916.196 135.563 913.978 139.317 911.503 142.048C909.114 144.779 906.468 146.699 903.567 147.808C900.666 149.003 897.466 149.6 893.967 149.6ZM910.095 126.176L879.119 56.16H891.919L918.287 116.576L910.095 126.176Z" fill="white" fill-opacity="0.99"/>
<path d="M78.2862 21.4148C77.6208 22.2943 76.9555 21.7666 76.9555 22.2943C72.9631 21.2389 65.4774 24.0535 62.3168 23.7016C62.9822 24.7571 61.3187 24.5812 61.3187 25.2849C60.6534 24.2294 59.988 25.2849 58.9899 24.933C57.9918 27.5717 53.9994 25.6367 53.5004 28.979C51.1715 28.979 50.3398 30.3864 48.0109 31.7937C48.1773 31.9696 48.3436 31.9696 48.51 32.1455C47.3455 32.3214 47.3455 33.0251 46.3474 33.0251L46.6801 33.7287C44.8503 34.0805 44.1849 37.0711 41.5233 38.1266C40.6916 38.3025 38.8618 41.293 37.8637 41.9966C37.3646 42.3485 36.5329 42.3485 37.6973 42.5244C37.531 42.7003 37.531 43.0521 37.6973 43.228C36.5329 43.5799 36.3666 44.6354 34.8694 45.1631C34.7031 45.6908 35.2021 46.0427 34.8694 46.3945C34.5367 46.5704 34.0377 46.2186 33.705 46.3945C33.5386 43.228 36.8656 42.8762 37.8637 40.2375C37.531 40.5893 37.0319 41.6448 36.6992 40.9412C36.5329 40.4134 38.03 38.4784 38.03 39.5339C37.531 39.182 37.3646 40.0616 37.6973 40.2375C38.1964 39.3579 39.1945 39.5339 39.1945 38.8302C38.6954 38.3025 38.03 39.3579 38.1964 38.4784C39.6935 37.5988 39.5272 36.7192 40.3589 35.4879C39.6935 36.3674 39.5272 34.7842 38.8618 35.4879C38.6954 38.1266 35.8675 37.5988 35.8675 40.2375C35.5348 41.1171 35.2021 40.4134 34.7031 40.7653C35.3685 41.4689 32.7069 43.9317 32.7069 43.0521C31.8752 44.1076 32.3742 44.4594 32.2079 45.1631C31.5425 45.339 32.0415 44.4594 31.5425 44.9872C32.2079 46.2186 30.7107 47.8018 29.7126 49.0332L30.378 49.385C29.2136 50.0887 29.0472 51.496 28.2155 53.0792C27.2174 51.496 30.2117 47.9777 29.7126 47.2741C29.7126 47.0981 30.8771 45.6908 31.2098 44.9872C32.5406 42.5244 33.5386 39.5339 35.3685 38.1266C35.0358 38.3025 35.2021 39.3579 35.7012 38.8302C35.7012 38.3025 35.3685 37.7747 35.3685 37.247C36.3666 36.1915 37.1983 35.3119 38.1964 34.2565C36.0339 35.6638 33.8713 37.0711 32.3742 39.182C33.2059 39.3579 34.0377 37.7747 34.7031 37.9506C33.0396 39.3579 33.5386 39.8857 32.8732 41.6448C32.2079 42.1726 33.0396 40.9412 32.3742 40.7653C30.2117 42.8762 28.5482 44.1076 27.5501 46.0427C27.7165 46.2186 27.8828 46.3945 27.8828 46.7463C27.7165 46.9222 27.7165 46.9222 27.5501 47.0981C28.5482 46.0427 28.8809 45.1631 30.0453 44.9872C29.5463 45.5149 30.0453 45.6908 29.3799 46.2186C29.0472 46.9222 28.5482 45.8667 28.2155 46.3945C28.5482 46.9222 28.2155 47.6259 28.2155 48.1536C27.8828 48.1536 27.5501 48.1536 27.3838 48.6814C27.0511 48.8573 26.8847 48.6814 26.7184 48.3295C26.552 48.5054 26.552 48.8573 26.3857 49.0332V49.2091C26.2193 49.385 26.053 49.7368 25.8866 49.9128C24.5558 53.6069 23.7241 58.5325 21.8943 61.699C22.3933 63.8099 21.5616 68.0319 21.0625 69.0873C21.5616 69.9669 21.2289 74.0129 20.8962 74.7166C20.0645 74.3647 21.0625 72.4297 20.2308 71.9019C19.3991 75.772 20.7298 80.1699 20.3972 83.6882C20.7298 83.6882 21.0625 83.6882 21.0625 83.8641C20.5635 84.3918 21.3952 85.4473 21.2289 86.6787C21.8943 88.2619 19.7318 84.3918 19.7318 82.8086C19.5654 82.4568 18.9 82.8086 19.0664 81.929C19.0664 80.6976 19.3991 78.2348 18.7337 76.4757C18.401 76.4757 18.401 76.8275 18.0683 76.6516C17.9019 75.772 17.7356 74.7166 17.5692 73.837C17.4029 74.1888 17.2365 74.7166 17.2365 74.8925C16.4048 79.2903 17.2365 84.3918 16.9038 88.086C17.5692 88.086 17.5692 89.1415 18.0683 89.4933C17.9019 88.086 17.5692 86.3269 18.401 85.975C19.0664 92.8357 20.3972 100.4 23.3914 107.788C25.5539 113.242 28.7145 118.695 32.5405 123.093C32.8732 122.565 32.3742 121.334 32.5405 120.806C35.8675 124.5 38.03 128.898 41.6897 131.361C41.856 130.481 40.1926 129.777 40.1926 129.074C41.6897 130.657 42.1887 130.129 43.8522 130.657C44.3513 131.361 43.1868 130.657 43.0205 131.361C44.0186 132.064 44.684 132.944 45.3493 133.472C45.3493 133.296 45.183 133.296 45.183 133.12C47.0128 133.648 47.1792 134.703 48.51 135.055C48.3436 135.231 48.0109 135.407 47.5119 135.231C47.8446 135.407 48.3436 135.759 48.8426 135.934C48.6763 135.934 48.6763 135.759 48.51 135.759C49.508 136.286 48.6763 135.583 48.6763 135.231C48.8427 135.231 49.009 135.407 49.009 135.407C48.0109 134.703 47.3455 134.351 47.0128 133.12C47.5119 133.472 47.6782 133.12 48.3436 133.648C49.009 133.999 48.1773 134.527 48.6763 134.879C49.1753 134.527 49.8407 134.703 50.3398 134.703C50.3398 135.055 50.5061 135.407 50.8388 135.583C51.0052 135.934 50.8388 136.11 50.6725 136.11C50.8388 136.286 51.0052 136.286 51.3379 136.462C51.3379 136.462 51.5042 136.462 51.5042 136.286C54.3321 137.694 57.4927 138.925 60.487 139.98C62.3168 140.156 64.6457 140.156 65.6438 141.388C65.3111 141.388 64.9784 141.212 64.8121 141.388C64.9784 141.388 65.3111 141.564 65.4774 141.564C65.8101 141.212 66.3092 141.564 65.8101 140.86C65.9765 140.86 65.9765 140.86 66.1428 141.036C66.1428 140.86 66.1428 140.86 66.3092 140.684C66.4755 140.684 66.6419 140.86 66.8082 141.212C66.9746 141.212 67.1409 141.212 67.3073 141.388L67.1409 141.212C68.4717 141.564 69.6361 141.388 71.466 141.74C71.466 141.916 71.466 142.091 71.466 142.267C71.7987 142.267 71.965 142.443 72.2977 142.443V142.267C72.9631 142.619 73.6285 141.916 73.6285 142.267C73.7948 142.267 73.7948 142.267 73.9612 142.267C73.9612 141.916 73.7948 141.74 73.7948 141.564C74.6266 141.564 75.1256 141.564 75.4583 142.091C75.292 142.267 75.1256 142.267 74.9593 142.267C75.292 142.267 75.6247 142.443 75.9574 142.619C76.4564 142.443 76.6228 142.267 76.6228 141.564C77.4545 143.147 80.1161 141.212 81.2805 141.564C81.7795 141.564 81.6132 142.267 81.9459 142.619C82.1122 142.619 82.2786 142.619 82.4449 142.619C83.2767 141.916 84.4411 141.212 85.9382 141.036C84.6075 141.388 86.1046 141.564 86.2709 141.74C85.9382 141.74 85.9382 141.916 85.9382 142.091C86.4373 142.091 86.9363 141.916 87.4354 141.916C87.4354 141.564 87.6017 141.388 87.9344 141.388C88.2671 141.388 88.2671 141.564 88.2671 141.916C88.7662 141.916 89.0989 141.916 89.5979 141.74C89.4315 141.036 90.4296 140.86 90.7623 140.332C89.4316 140.684 87.9344 141.212 87.4354 140.332C92.7585 139.101 98.5807 137.342 104.237 134.351C104.237 134.351 104.237 134.351 104.237 134.175H104.403C105.401 133.648 106.399 133.12 107.397 132.592C108.063 132.24 108.562 131.888 109.227 131.361C109.227 131.185 109.227 131.009 109.56 131.009H109.726C110.391 130.481 111.057 130.129 111.722 129.602C112.388 128.546 113.053 127.139 114.217 127.491C116.713 123.445 119.374 121.861 121.537 117.639C121.703 118.343 122.202 116.056 123.034 115.88C121.703 116.056 123.866 115.001 122.535 115.177C123.699 113.945 124.032 113.418 124.198 112.01C123.866 112.714 123.699 112.89 123.533 112.186C123.367 111.131 124.697 112.362 125.196 111.307C124.198 111.307 124.531 110.603 124.697 109.723C125.196 110.251 125.03 110.779 125.529 110.603C126.194 109.899 125.196 109.723 125.363 109.196C125.862 109.899 126.028 109.547 126.693 109.196C125.862 109.02 127.193 107.788 126.194 108.316C126.86 107.436 127.026 106.909 126.693 106.029C126.028 107.085 126.527 107.788 125.529 107.612C127.525 105.853 126.527 101.807 128.856 101.455C127.359 101.104 128.856 100.4 128.024 100.224C129.022 99.8722 128.523 98.4649 129.688 98.1131C129.521 97.2335 129.189 96.7058 129.022 95.8262C129.521 95.1225 129.688 93.7152 130.519 93.5393C130.02 93.0116 130.353 91.6043 129.854 91.0765C130.519 91.4284 130.852 91.4283 131.351 90.7247C130.519 90.021 131.185 89.3174 130.686 89.1415C132.183 85.0955 130.353 76.8275 131.185 73.6611C130.187 74.1888 130.519 72.4297 129.854 72.4297C131.019 71.9019 130.02 71.0224 130.519 70.1428C128.191 68.7355 130.519 64.8654 127.359 63.9858C127.692 61.5231 126.361 60.4676 125.363 57.8289C125.196 58.0048 125.196 58.1807 125.03 58.3566C124.864 57.1252 124.198 56.9493 124.531 55.8938L123.866 56.2456C123.866 54.3106 121.038 53.2551 120.372 50.2646C120.206 49.385 117.711 47.0981 117.045 45.8667C116.713 45.339 116.879 44.4594 116.546 45.6908C116.38 45.5149 116.047 45.5149 115.881 45.5149C115.715 44.2835 114.716 43.9317 114.384 42.3485C114.051 42.1726 113.552 42.7003 113.219 42.1726C113.219 41.8207 113.552 41.293 113.386 40.9412C116.38 41.1171 116.38 44.8113 118.709 46.0427C118.542 45.5149 117.544 44.9872 118.21 44.6354C118.709 44.6354 120.206 46.3945 119.374 46.2186C119.873 45.8667 118.875 45.5149 118.709 45.6908C119.541 46.3945 119.208 47.2741 119.873 47.45C120.372 47.0981 119.374 46.2186 120.372 46.3945C121.038 47.9777 121.869 48.1536 122.867 49.0332C122.202 48.3295 123.699 48.1536 123.034 47.45C120.539 46.9222 121.37 43.9317 118.875 43.5799C118.21 43.0521 118.709 42.8762 118.542 42.3485C117.711 42.8762 115.881 39.8857 116.546 40.0616C115.715 39.182 115.215 39.5339 114.55 39.3579C114.384 38.6543 115.215 39.182 114.883 38.6543C113.718 39.182 112.221 37.4229 111.223 36.1915L110.724 36.7192C110.225 35.3119 108.894 35.136 107.397 34.0805C109.061 33.201 111.889 36.8952 112.72 36.3674C112.887 36.3674 114.217 37.7747 114.716 38.3025C116.879 40.0616 119.541 41.4689 120.539 43.404C120.372 43.0521 119.374 43.0521 119.873 43.5799C120.372 43.7558 120.871 43.404 121.37 43.404C124.032 47.2741 127.359 50.4405 129.854 55.0143C130.02 55.1902 130.187 55.542 130.353 55.8938C130.02 54.8383 129.521 53.9588 129.189 52.9033C126.527 50.9682 125.529 45.339 122.368 44.4594C122.535 42.5244 120.871 41.9966 120.04 39.7098C119.541 39.0061 119.208 40.2375 118.709 39.3579C119.208 36.8952 114.55 37.0711 114.716 34.7842C114.384 34.6083 113.885 34.4324 113.552 34.0805H113.386C113.219 33.9046 113.219 33.9046 113.053 33.7287C112.221 33.201 111.556 32.6732 110.89 32.1455C108.562 30.7382 105.401 29.6827 102.906 28.2754V28.4513C102.24 28.0995 101.409 28.2754 101.575 27.5717C101.076 27.2199 100.577 26.8681 100.078 26.5163C99.9115 26.5163 99.9115 26.5163 99.7451 26.5163C99.7451 26.5163 99.5788 26.6922 99.4124 26.6922C99.0797 26.6922 99.0797 26.6922 98.9134 26.5163C96.7509 26.3403 93.9229 25.2849 93.0912 24.5812C92.2595 25.1089 88.4335 24.2294 87.7681 23.8776C88.1008 23.3498 89.0989 23.8776 89.9306 23.8776C89.4316 23.7016 88.9325 23.5257 88.7662 23.1739C88.5998 23.1739 88.5998 23.1739 88.4335 23.1739C88.2671 23.7016 87.7681 23.1739 87.6017 23.3498H87.7681C87.6017 24.0535 87.1027 24.4053 86.2709 24.2294C86.2709 23.8776 86.2709 23.7016 86.1046 23.3498C86.4373 23.3498 87.4354 23.8776 87.4354 23.3498C87.269 23.3498 87.269 23.1739 87.4354 23.1739C87.1027 22.8221 86.6036 22.8221 86.2709 22.6462C85.6055 22.6462 84.7738 22.6462 84.1084 22.6462C83.9421 22.8221 83.7757 22.8221 83.443 22.998C83.2767 22.8221 82.944 22.8221 82.7776 22.6462C81.7795 22.6462 80.6151 22.4703 79.7834 22.2943C79.7834 22.6462 79.7834 22.998 79.4507 22.998C78.9516 22.2943 77.9535 23.1739 76.7891 22.8221C75.6247 23.1739 77.4545 22.2943 79.118 21.9425C78.9516 21.7666 78.7853 21.5907 78.2862 21.4148ZM54.9975 18.952C52.6687 21.2389 47.8446 22.2943 47.0128 24.0535C45.682 24.2294 43.6859 26.8681 42.0224 27.2199C42.8541 27.2199 42.1887 27.7477 42.0224 28.0995C41.6897 27.7477 41.357 27.5717 41.0243 27.5717C41.0243 28.9791 39.6935 29.8586 38.5291 30.7382C39.3608 30.2104 40.0262 29.8586 41.0243 29.6827C41.0243 30.0345 41.0243 30.3864 41.357 30.3864C42.5214 29.155 43.8522 27.9236 45.3493 26.6922C47.3455 24.7571 57.6591 19.8315 59.4889 18.952C59.4889 18.952 59.1562 18.2483 59.3226 18.2483C60.1543 17.7206 60.8197 18.7761 60.986 17.5447C58.3245 17.1928 57.3264 19.1279 54.9975 18.952ZM131.684 59.7639V59.588C131.518 59.588 131.684 59.7639 131.684 59.7639ZM64.4794 141.212C64.313 141.036 64.1467 141.036 64.1467 141.036C64.1467 141.212 64.313 141.212 64.4794 141.212ZM50.3398 136.638C50.5061 136.814 50.5061 136.814 50.6725 136.814C50.5061 136.814 50.3398 136.638 50.3398 136.638ZM76.9555 142.443C76.6228 142.443 76.4564 142.443 76.2901 142.619C76.4564 142.619 76.6228 142.619 76.7891 142.619H76.9555C76.9555 142.619 76.9555 142.619 76.9555 142.443ZM79.9497 142.091C79.7834 142.267 79.2843 142.443 78.7853 142.443C78.7853 142.619 78.9516 142.795 78.9516 142.795C79.118 142.795 79.2843 142.795 79.4507 142.795C79.4507 142.795 79.617 142.795 79.617 142.619C79.617 142.619 79.617 142.619 79.617 142.795C79.7834 142.795 79.7834 142.795 79.9497 142.795C80.1161 142.443 80.2824 142.267 79.9497 142.091ZM85.4392 141.564C84.6075 141.388 84.1084 141.74 83.2767 142.267C83.7757 142.267 84.4411 142.091 84.9402 141.916C85.1065 141.916 85.2729 141.74 85.4392 141.564ZM144.659 116.584C144.326 116.408 144.16 116.408 143.827 117.112C141.166 123.093 136.342 131.713 129.355 138.925C122.535 146.313 113.386 152.294 105.068 155.461C105.567 155.285 106.233 154.933 105.9 154.581C98.5807 157.572 91.5941 159.331 84.9402 160.035C66.9746 163.025 48.1773 158.979 33.705 149.128C33.8713 148.776 33.8713 148.6 33.3723 148.248C28.0492 144.73 20.5635 138.573 14.575 130.481C8.58645 122.389 3.9287 112.186 1.93253 103.039C2.09887 103.566 2.26522 104.446 2.59792 104.094C-1.72713 85.975 -0.562693 70.4946 5.42583 57.1252C5.75853 57.477 4.59409 59.2362 5.59218 59.0603C6.25757 57.1252 7.08931 55.0143 8.0874 53.0792C9.25184 50.2646 10.5826 46.5704 12.4124 45.6908C10.5826 49.9128 7.42201 60.9953 7.08931 70.8465C7.7547 69.4392 7.58836 66.4486 8.58645 65.2172C8.91914 71.902 7.42201 80.8735 9.58453 87.2064C9.08549 83.8641 8.75279 79.2903 9.08549 74.7166C9.08549 71.3742 10.5826 62.0508 11.5807 61.1712C11.4144 61.3471 11.4144 62.2267 11.5807 62.2267C12.0798 61.1712 10.9153 60.6435 11.7471 60.4676C11.7471 60.8194 11.9134 60.8194 12.0798 60.8194C13.7432 56.9493 15.9058 50.9682 17.5692 47.9777C19.5654 44.1076 22.227 40.5893 25.2212 37.4229C25.2212 37.247 25.3876 37.247 25.3876 37.0711C25.7203 36.1915 26.8847 35.136 27.2174 34.4324C27.3838 34.0805 27.0511 33.5528 27.2174 33.201C29.7126 28.2754 33.3723 23.3498 37.8637 19.4797C40.6916 15.9614 45.183 12.2673 50.6725 9.10083C55.9956 6.1103 62.1505 3.64751 67.8063 2.2402C71.7987 1.18472 76.6228 1.00881 79.617 0.305154C83.6094 -0.574414 90.596 0.656978 94.0893 1.36063C115.049 4.70299 135.843 19.8316 146.323 41.6448C154.307 69.0873 153.975 96.0021 144.659 116.584Z" fill="#434EB2"/>
</svg>
